<?xml version="1.0" standalone="no"?>
<!DOCTYPE svg PUBLIC "-//W3C//DTD SVG 20010904//EN"
 "http://www.w3.org/TR/2001/REC-SVG-20010904/DTD/svg10.dtd">
<svg version="1.0" xmlns="http://www.w3.org/2000/svg"
 width="1000.000000pt" height="1000.000000pt" viewBox="0 0 1000.000000 1000.000000"
 preserveAspectRatio="xMidYMid meet">
<metadata>
Created by potrace 1.11, written by Peter Selinger 2001-2013
</metadata>
<g transform="translate(0.000000,1000.000000) scale(0.100000,-0.100000)"
fill="#000000" stroke="none">
<path d="M4676 7085 c-3 -8 -1 -15 4 -15 6 0 10 7 10 15 0 8 -2 15 -4 15 -2 0
-6 -7 -10 -15z"/>
<path d="M4706 7089 c3 -5 11 -7 17 -3 7 3 4 -1 -6 -9 -12 -10 -45 -16 -100
-17 -118 -3 -117 -3 -107 -15 6 -7 -10 -11 -48 -13 -52 -3 -77 -16 -67 -33 3
-3 -8 -6 -23 -7 -66 0 -74 -2 -69 -15 3 -8 -1 -14 -8 -14 -7 0 -11 6 -8 14 3
7 0 13 -6 13 -6 0 -11 -6 -11 -14 0 -7 -10 -13 -22 -13 -42 -1 -46 -3 -42 -20
4 -15 -2 -18 -30 -19 -72 -3 -75 -4 -70 -18 4 -11 -2 -14 -21 -11 -20 2 -29
-3 -32 -15 -4 -13 -12 -17 -29 -14 -13 2 -24 0 -24 -5 0 -6 -8 -8 -17 -4 -15
5 -15 3 1 -9 18 -14 16 -16 -30 -23 -39 -6 -45 -9 -29 -16 20 -8 7 -14 -22
-10 -8 1 -10 -5 -6 -16 5 -15 3 -15 -11 2 -17 20 -17 20 -13 -2 4 -19 1 -23
-19 -23 -17 0 -22 -4 -18 -15 4 -11 0 -15 -16 -15 -16 0 -20 -4 -16 -15 3 -8
1 -15 -4 -15 -6 0 -10 7 -10 16 0 8 -5 12 -10 9 -6 -4 -8 -11 -5 -16 4 -5 -1
-9 -10 -9 -9 0 -19 -9 -22 -20 -3 -11 -14 -20 -24 -20 -11 0 -19 -7 -19 -15 0
-8 -7 -15 -15 -15 -8 0 -15 -9 -15 -20 0 -11 -5 -20 -10 -20 -6 0 -23 -13 -38
-28 -15 -15 -31 -30 -37 -32 -5 -3 -10 -12 -10 -20 0 -8 -8 -16 -18 -18 -9 -2
-18 -8 -18 -13 -1 -5 -2 -13 -3 -18 0 -5 -5 -13 -10 -18 -5 -5 -6 -3 -2 5 4 6
2 12 -3 12 -6 0 -11 -9 -11 -20 0 -11 -6 -20 -12 -20 -9 0 -8 -4 2 -10 12 -8
11 -10 -7 -10 -18 0 -23 -6 -23 -25 0 -16 -4 -23 -14 -19 -9 3 -15 -5 -20 -26
-3 -17 -10 -29 -16 -25 -6 4 -10 -5 -10 -19 0 -19 -5 -26 -20 -26 -16 0 -20
-7 -20 -35 0 -24 -5 -35 -15 -35 -10 0 -15 -10 -15 -29 0 -21 -5 -28 -17 -27
-14 1 -19 -8 -21 -36 -2 -27 -7 -35 -18 -31 -11 4 -14 -4 -14 -36 0 -25 -4
-40 -11 -39 -6 2 -14 -3 -16 -10 -3 -8 2 -10 14 -6 17 5 17 5 1 -6 -11 -7 -18
-24 -18 -45 0 -28 -3 -32 -20 -28 -18 5 -20 2 -16 -19 2 -14 0 -31 -4 -39 -5
-8 -4 -19 2 -27 9 -10 7 -14 -10 -18 -15 -5 -20 -14 -20 -37 1 -59 -2 -67 -19
-67 -15 0 -18 -9 -18 -53 1 -60 -3 -79 -16 -71 -5 3 -9 -7 -10 -23 -1 -15 -2
-61 -4 -101 -1 -42 -8 -79 -16 -89 -12 -14 -12 -16 1 -9 13 7 13 6 0 -6 -12
-10 -15 -42 -15 -160 0 -147 0 -148 -23 -148 -18 0 -21 -3 -14 -17 5 -10 7
-23 5 -30 -2 -6 6 -18 19 -27 12 -9 17 -16 11 -16 -7 0 -15 4 -18 10 -3 6 -11
10 -17 10 -6 0 -7 -5 -1 -12 10 -15 9 -100 -1 -117 -4 -6 -3 -11 1 -11 10 0
10 -41 -1 -58 -4 -7 -3 -12 2 -12 10 0 9 -61 -1 -77 -4 -6 0 -19 8 -29 11 -13
13 -14 10 -3 -4 9 0 16 7 16 10 0 13 -39 13 -176 0 -139 3 -178 14 -187 10 -8
15 -37 17 -95 4 -120 5 -136 11 -121 12 30 18 6 18 -68 -1 -44 2 -80 6 -80 5
0 6 -9 4 -20 -2 -12 0 -18 6 -15 5 4 7 11 4 16 -4 5 -1 9 4 9 10 0 13 -14 13
-87 0 -20 7 -34 17 -38 14 -6 14 -8 -3 -21 -17 -12 -18 -14 -3 -14 9 0 17 -6
18 -12 0 -7 2 -29 3 -48 1 -25 6 -34 16 -32 10 3 9 -3 -5 -20 -11 -13 -13 -17
-5 -10 8 6 17 12 20 12 7 0 7 -1 13 -69 2 -25 9 -47 15 -49 7 -2 12 -24 12
-53 0 -27 4 -49 10 -49 5 0 7 7 4 15 -4 8 -2 15 3 15 5 0 10 -16 11 -36 4 -54
6 -58 25 -66 12 -5 17 -19 17 -47 0 -22 4 -43 10 -46 6 -4 7 1 4 12 -5 15 -4
16 5 3 6 -8 11 -32 11 -52 0 -28 4 -38 16 -38 9 0 12 5 8 12 -4 6 -3 8 3 5 6
-4 11 -23 11 -43 0 -20 6 -41 12 -47 10 -9 11 -9 5 2 -5 9 -4 12 3 8 5 -4 9
-18 8 -32 -2 -17 3 -26 16 -31 10 -3 18 -11 17 -17 -4 -30 3 -46 20 -52 14 -4
18 -14 17 -36 -2 -21 2 -28 11 -25 7 3 13 0 14 -7 2 -29 8 -50 19 -61 8 -8 9
-6 5 7 -4 9 -3 17 2 17 5 0 10 -7 11 -15 1 -8 3 -22 4 -30 1 -9 7 -14 15 -11
8 4 13 -3 14 -19 2 -44 4 -48 18 -53 8 -3 11 0 7 6 -3 6 -3 13 2 16 4 2 9 -7
10 -21 2 -31 11 -45 23 -38 8 5 11 -13 8 -42 0 -4 9 -10 20 -15 13 -4 19 -13
15 -23 -4 -10 0 -15 15 -15 12 0 21 -6 21 -15 0 -8 7 -15 15 -15 9 0 15 -10
15 -26 0 -15 4 -23 11 -19 11 8 49 -27 49 -45 0 -9 14 -14 33 -11 4 1 4 -7 -2
-17 -8 -14 -6 -18 11 -19 12 -1 26 -7 32 -14 8 -8 5 -10 -14 -4 -19 5 -21 4
-10 -4 8 -6 25 -11 37 -11 16 0 21 -5 18 -20 -3 -16 2 -20 21 -20 14 0 23 -4
20 -8 -2 -4 4 -14 16 -21 16 -10 19 -10 13 1 -6 10 -5 10 6 -1 11 -10 11 -15
1 -18 -6 -3 -9 -9 -6 -14 3 -6 12 -2 20 8 10 13 13 14 12 3 -2 -8 3 -14 11
-15 8 0 17 -8 20 -18 4 -10 10 -18 14 -18 33 4 57 -1 52 -9 -6 -10 3 -13 38
-13 9 0 17 -4 17 -9 0 -5 5 -6 10 -3 6 4 10 3 9 -2 -4 -23 4 -30 31 -27 16 2
29 0 29 -4 -4 -22 6 -27 59 -26 31 0 65 -3 74 -8 9 -4 18 -4 21 2 3 6 4 5 3
-2 -2 -7 -10 -12 -20 -10 -9 2 -16 -1 -16 -6 0 -4 15 -8 33 -7 17 0 38 -3 45
-8 8 -6 12 -5 12 2 0 7 5 9 10 6 6 -4 109 -7 228 -8 l217 -2 2 -117 c1 -74 -2
-118 -8 -118 -6 0 -7 5 -3 11 4 8 1 8 -12 2 -11 -5 -38 -9 -61 -9 -26 1 -45
-4 -48 -11 -2 -7 -9 -13 -15 -13 -6 0 -9 4 -5 9 3 5 0 13 -6 17 -7 4 -9 3 -6
-3 11 -18 -16 -29 -70 -29 -36 1 -53 -3 -53 -11 0 -7 -13 -14 -30 -14 -38 -2
-43 -3 -57 -12 -6 -4 -14 -1 -16 5 -3 7 -6 3 -6 -9 -1 -18 -8 -22 -38 -25 -27
-2 -37 -7 -35 -18 2 -11 -1 -11 -11 3 -18 22 -31 22 -25 -1 4 -14 -1 -17 -21
-16 -14 1 -34 -3 -43 -7 -10 -5 -18 -5 -21 1 -3 6 -4 5 -3 -2 2 -7 9 -12 15
-11 6 2 11 -1 11 -6 0 -5 -11 -9 -25 -10 -14 -1 -36 -2 -49 -3 -14 -1 -22 -6
-20 -10 6 -9 -37 -28 -48 -21 -5 2 -8 0 -8 -6 0 -5 6 -12 13 -14 6 -3 -5 -6
-25 -6 -21 -1 -37 -4 -37 -8 3 -21 -2 -33 -16 -33 -8 0 -15 -8 -16 -17 0 -11
-3 -13 -6 -5 -2 6 -12 12 -21 12 -15 0 -15 -2 -2 -10 12 -8 9 -10 -13 -10 -16
0 -26 -4 -22 -9 3 -5 -2 -16 -10 -24 -8 -9 -15 -20 -15 -26 0 -6 -5 -11 -11
-11 -5 0 -7 -6 -3 -12 6 -10 4 -10 -7 -1 -18 18 -30 16 -23 -2 4 -9 0 -15 -10
-15 -9 0 -17 -4 -17 -10 -1 -5 -3 -14 -4 -20 -1 -5 -3 -17 -4 -25 0 -8 -5 -15
-11 -15 -5 0 -7 6 -4 14 3 8 1 17 -5 21 -7 3 -8 0 -5 -9 4 -9 1 -16 -6 -16 -7
0 -10 -8 -7 -19 3 -13 -1 -21 -15 -24 -11 -3 -17 -10 -13 -16 3 -6 -4 -16 -17
-21 -23 -11 -23 -11 0 -6 12 2 22 0 22 -5 0 -8 -15 -13 -32 -10 -5 0 -9 -5 -9
-12 -1 -6 -2 -16 -4 -22 -1 -5 -3 -19 -4 -30 -1 -17 -3 -18 -11 -5 -11 16 -11
16 -14 -92 -1 -31 -6 -61 -11 -65 -4 -4 -5 -3 -1 4 3 6 2 14 -3 17 -5 3 -9
-30 -9 -79 1 -46 5 -82 9 -79 4 2 6 20 4 39 -3 19 -1 36 3 39 9 5 9 -101 -1
-110 -4 -4 -2 -13 4 -21 6 -7 9 -22 6 -33 -3 -11 -1 -20 3 -20 5 0 7 -9 5 -20
-2 -12 0 -18 6 -15 5 4 7 11 4 16 -4 5 -2 9 3 9 18 0 8 -86 -12 -106 -20 -20
-23 -21 -56 -23 -11 0 -20 -8 -20 -16 0 -8 -7 -15 -15 -15 -8 0 -15 -6 -15
-14 0 -8 -17 -18 -37 -24 -21 -5 -30 -10 -20 -11 9 -1 17 -5 17 -11 0 -5 -7
-7 -15 -4 -14 6 -19 -5 -16 -33 1 -7 -7 -9 -19 -6 -17 4 -19 2 -13 -13 6 -17
5 -17 -11 -5 -14 12 -17 12 -14 1 2 -8 -2 -14 -9 -15 -6 0 -15 -4 -20 -9 -5
-5 -3 -6 5 -2 6 4 12 3 12 -2 0 -6 -7 -12 -15 -16 -8 -3 -15 -9 -14 -13 4 -21
-3 -31 -18 -29 -12 1 -17 -5 -15 -17 2 -9 -1 -17 -5 -16 -21 4 -31 -2 -29 -18
0 -10 -4 -18 -11 -18 -6 0 -15 -4 -20 -9 -4 -5 -3 -6 4 -2 6 3 14 2 18 -4 3
-5 -3 -10 -14 -10 -14 0 -19 -5 -16 -20 3 -15 -2 -20 -18 -20 -15 0 -18 -3
-10 -11 15 -15 4 -52 -13 -45 -10 4 -14 -5 -14 -35 0 -22 -4 -38 -8 -35 -18
11 -31 -12 -33 -56 -2 -26 -8 -49 -14 -52 -6 -2 -12 -35 -13 -80 l-3 -76 308
1 c169 0 302 3 295 6 -6 2 -9 9 -6 14 3 6 12 5 22 -3 12 -10 14 -10 8 0 -4 6
-2 12 4 12 6 0 8 12 5 29 -3 17 -1 33 5 36 5 3 10 -2 11 -12 0 -16 1 -16 8 2
5 11 6 26 3 34 -4 10 0 13 16 9 14 -4 22 -2 22 6 0 17 40 62 51 58 5 -1 9 7 9
17 0 14 6 19 20 16 16 -3 20 2 20 20 0 18 4 23 15 19 9 -4 15 0 15 10 0 12 10
16 37 16 20 0 33 -3 30 -7 -9 -9 13 -34 24 -27 5 3 9 2 8 -3 -6 -33 3 -61 18
-59 10 0 18 -5 18 -12 0 -7 6 -17 14 -22 14 -8 21 -32 22 -72 0 -10 4 -18 10
-18 5 0 8 3 7 8 -2 4 2 9 7 12 6 3 10 -8 10 -25 1 -20 6 -31 17 -33 10 -2 15
-9 11 -18 -4 -12 130 -14 1002 -14 945 0 1007 1 994 17 -10 11 -10 14 -1 9 7
-4 12 -2 12 4 0 6 4 9 9 5 5 -3 13 0 17 6 4 7 3 9 -4 5 -6 -3 -13 -2 -17 4 -3
5 1 10 9 10 10 0 13 7 11 21 -3 15 0 19 11 15 9 -3 17 1 21 12 4 9 14 23 22
30 14 11 14 11 -2 6 -13 -5 -16 -2 -11 10 3 8 11 14 17 13 6 -1 11 5 12 13 0
8 5 15 10 15 21 0 33 16 30 40 -1 16 3 25 11 25 8 0 14 11 14 25 0 14 9 33 19
42 11 9 17 22 14 29 -3 9 2 11 18 7 18 -5 21 -3 16 10 -12 31 56 24 92 -9 14
-14 38 -28 54 -31 18 -4 27 -12 27 -25 0 -13 5 -18 14 -15 8 3 16 -2 19 -14 3
-10 11 -19 17 -19 8 0 9 5 4 13 -5 7 -2 5 7 -5 9 -9 18 -16 20 -15 3 1 -2 -4
-10 -10 -13 -11 -12 -13 7 -13 12 0 21 -3 21 -7 -1 -5 -1 -15 1 -23 1 -11 4
-9 10 5 8 19 9 19 9 -3 1 -26 30 -63 32 -40 0 7 5 0 9 -16 5 -16 7 -33 4 -38
-3 -4 2 -8 10 -8 10 0 16 -10 17 -25 2 -34 3 -38 13 -54 7 -10 6 -12 -4 -6 -9
5 -11 4 -6 -3 5 -8 103 -11 338 -11 182 0 328 3 324 7 -4 4 -12 7 -17 7 -8 0
-11 8 -8 18 5 14 5 54 1 61 -3 6 -6 35 -7 65 -1 42 -4 55 -15 53 -11 -3 -11 0
1 14 9 12 9 15 2 10 -12 -7 -18 25 -16 81 1 12 -11 17 -29 14 -5 0 -8 12 -8
29 0 22 -5 30 -17 30 -15 0 -16 2 -3 10 10 6 11 10 3 10 -7 0 -13 11 -13 25 0
14 -4 25 -9 25 -6 0 -8 9 -6 20 2 12 0 18 -6 15 -5 -4 -7 -10 -4 -15 3 -5 1
-11 -5 -15 -9 -6 -15 21 -11 53 1 6 -5 12 -14 12 -9 0 -15 9 -15 25 0 24 -13
34 -23 18 -2 -5 -2 -2 -1 5 2 6 -1 12 -7 12 -5 0 -9 8 -7 18 2 11 -3 17 -15
16 -9 -1 -17 3 -16 10 3 25 -2 37 -12 31 -6 -4 -13 2 -16 13 -3 13 -12 19 -23
17 -11 -2 -17 3 -16 13 0 10 -3 17 -7 17 -5 0 -13 8 -18 18 -6 9 -16 17 -24
17 -9 0 -12 6 -9 15 5 11 -1 15 -19 15 -20 0 -25 4 -22 20 3 14 -2 20 -16 20
-10 0 -22 -1 -25 -2 -3 -2 -10 5 -15 15 -6 9 -17 17 -24 17 -8 0 -15 9 -15 20
0 11 -6 20 -13 20 -7 0 -19 6 -25 13 -13 12 -17 13 -46 16 -8 0 -17 9 -19 18
-4 17 -5 17 -6 1 -1 -20 -16 -24 -27 -6 -5 7 -3 8 6 3 8 -5 11 -4 6 3 -3 6
-16 9 -27 7 -19 -4 -20 0 -17 63 1 43 8 71 17 78 11 9 12 12 1 19 -9 6 -11 4
-5 -5 5 -8 4 -11 -2 -7 -12 7 -11 53 1 64 5 4 6 -2 3 -14 -3 -13 -1 -23 3 -23
5 0 9 17 8 38 0 20 2 44 4 52 1 8 -3 14 -9 13 -7 -2 -13 2 -13 7 0 6 5 10 10
10 6 0 10 5 10 10 0 6 -7 10 -16 10 -8 0 -12 5 -9 10 4 6 10 8 15 5 5 -3 7 4
5 16 -3 13 -10 26 -16 29 -6 4 -10 10 -10 14 1 3 1 24 1 46 0 33 -3 40 -20 40
-11 0 -20 5 -20 11 0 5 5 7 10 4 6 -3 10 -1 10 4 0 6 -4 11 -10 11 -5 0 -9 3
-9 8 1 4 1 16 0 27 -1 17 -3 18 -11 5 -8 -12 -10 -9 -10 13 0 15 -4 27 -10 27
-5 0 -7 7 -3 15 3 10 0 15 -8 13 -7 -2 -14 3 -15 10 -1 6 -2 18 -3 25 -1 8 -4
8 -11 -3 -5 -8 -13 -11 -17 -6 -4 4 1 14 12 23 14 10 15 14 5 13 -33 -5 -50 1
-50 15 0 8 -9 15 -20 15 -11 0 -20 7 -20 14 0 8 -11 27 -25 42 -14 15 -25 23
-25 19 0 -5 -6 -1 -13 10 -8 10 -19 15 -25 11 -6 -3 -13 -2 -17 4 -4 6 -10 8
-15 5 -4 -3 -6 5 -2 17 4 18 2 20 -17 15 -14 -3 -24 0 -28 9 -4 11 -8 12 -19
3 -12 -10 -13 -9 -8 5 5 13 0 16 -25 16 -17 0 -31 5 -31 11 0 5 5 7 10 4 6 -3
10 -1 10 4 0 17 -18 13 -30 -7 -10 -15 -10 -15 -5 4 4 16 1 21 -12 21 -47 0
-63 4 -63 16 0 10 -14 13 -47 13 -33 0 -47 4 -46 12 3 14 6 14 -77 16 -51 1
-65 5 -64 17 1 9 -8 16 -22 17 -13 1 -24 -4 -24 -11 0 -8 -3 -7 -10 3 -6 10
-32 14 -99 15 -50 0 -94 5 -98 10 -4 4 0 5 9 2 10 -3 20 -2 22 2 3 5 -5 8 -17
8 -305 3 -299 2 -293 19 4 10 -1 22 -12 30 -15 10 -18 26 -18 92 1 55 -2 78
-9 72 -12 -10 -17 22 -18 113 0 31 -4 57 -9 57 -5 0 -6 5 -3 10 3 6 17 10 31
10 13 0 24 5 24 10 0 6 -5 10 -12 10 -9 0 -9 3 0 12 10 10 15 10 22 -2 7 -10
10 -11 10 -2 0 6 7 12 15 12 8 0 15 7 15 15 0 8 9 15 20 15 18 0 25 10 21 33
-1 6 32 12 52 8 5 -1 6 3 2 9 -3 6 -11 7 -17 4 -7 -4 -8 -2 -4 4 4 7 14 12 22
12 8 0 14 7 14 16 0 8 5 12 10 9 6 -4 7 -12 4 -18 -4 -7 -3 -8 2 -4 5 5 9 14
9 20 0 7 7 11 16 9 9 -1 16 4 16 13 0 8 -5 11 -10 8 -6 -4 -7 -1 -2 6 4 7 18
11 30 8 18 -3 22 0 20 15 -3 12 2 18 15 18 13 0 18 5 13 16 -3 10 1 17 14 20
10 3 20 15 20 26 1 12 7 26 14 32 9 8 10 6 5 -8 -5 -16 -4 -17 9 -6 8 7 15 23
15 36 0 17 4 22 15 17 9 -3 15 -2 14 3 -4 23 3 32 20 27 16 -4 19 -1 14 16 -4
15 -1 21 11 21 14 0 22 24 17 53 0 4 8 7 19 7 13 0 20 7 20 20 0 11 7 20 15
20 8 0 15 5 15 11 0 5 -4 8 -9 4 -5 -3 -13 -1 -16 5 -4 6 -1 9 7 8 7 -2 14 7
16 20 2 12 9 22 16 22 12 0 16 12 17 54 0 13 6 17 20 13 16 -4 19 0 19 30 0
25 4 34 13 30 8 -3 14 3 14 17 5 73 7 87 15 92 4 3 8 -2 8 -10 0 -9 4 -16 9
-16 5 0 9 6 8 13 -2 60 4 87 21 88 14 0 14 2 -3 9 -18 8 -18 9 -2 9 13 1 18 8
17 24 -1 12 -2 37 -1 56 1 25 4 31 14 23 9 -8 12 -2 13 26 6 156 9 180 21 175
10 -4 11 -9 3 -18 -8 -10 -7 -15 2 -21 7 -4 10 -4 6 1 -4 4 -3 14 3 21 7 9 4
17 -13 29 -21 15 -21 16 -2 11 20 -6 20 -5 20 271 -1 241 -3 278 -16 277 -12
-1 -15 15 -16 88 0 48 4 88 8 88 5 0 6 -5 3 -10 -4 -6 -1 -17 5 -25 7 -8 8
-15 3 -15 -5 0 -9 -10 -10 -21 -2 -17 1 -19 10 -10 14 14 17 61 4 61 -5 0 -4
7 3 16 8 8 9 14 4 13 -32 -6 -33 0 -34 264 -1 144 -1 287 0 318 1 42 -3 58
-14 62 -8 3 -14 15 -13 26 0 11 5 18 9 15 4 -3 4 -12 1 -22 -3 -9 -3 -14 1
-11 14 13 14 48 0 53 -8 3 -14 11 -14 18 0 9 3 9 10 -2 5 -8 12 -12 15 -8 3 3
-1 13 -10 21 -22 22 -20 43 3 26 16 -13 16 -13 0 7 -14 16 -18 45 -20 166 -2
80 -6 144 -11 141 -4 -2 -4 -10 -1 -16 5 -8 3 -9 -4 -2 -7 6 -12 53 -13 113
-1 96 -3 102 -20 97 -17 -6 -19 0 -21 67 0 40 0 81 1 92 1 14 -2 16 -12 8 -13
-12 -15 -5 -21 119 0 9 -6 16 -12 16 -7 0 -10 -6 -7 -14 3 -7 1 -13 -4 -13 -4
0 -10 28 -11 62 -2 39 -8 65 -17 72 -8 6 -15 30 -17 53 -1 23 -6 40 -10 37 -5
-3 -5 -11 -2 -17 4 -7 3 -8 -2 -4 -4 4 -9 22 -10 40 -1 18 -2 38 -3 45 -1 6
-10 12 -21 12 -16 0 -19 6 -16 35 2 29 -1 35 -18 35 -20 0 -20 0 0 15 13 10
14 14 4 13 -8 -2 -16 6 -18 18 -2 17 -8 21 -25 17 -18 -4 -19 -3 -7 7 11 9 12
13 2 17 -6 2 -9 10 -6 15 4 6 -1 17 -12 25 -10 7 -19 26 -19 41 0 20 -5 26
-18 24 -11 -2 -17 4 -17 17 0 11 -3 27 -6 36 -5 13 -8 14 -15 3 -6 -9 -9 -4
-9 15 0 17 -5 27 -15 27 -9 0 -15 10 -15 26 0 14 -4 23 -10 19 -5 -3 -10 -1
-10 4 0 6 5 11 12 11 6 0 8 3 4 7 -4 5 -14 -1 -22 -11 -14 -19 -14 -19 -16 5
0 13 -1 30 -1 37 1 7 -5 11 -13 8 -9 -3 -14 2 -14 14 0 11 -4 20 -10 20 -5 0
-7 -8 -4 -17 3 -10 -4 -3 -16 15 -12 17 -26 32 -31 32 -5 0 -9 9 -9 21 0 14
-5 19 -14 16 -8 -3 -16 2 -19 15 -3 11 -10 17 -16 14 -11 -7 -34 28 -25 37 3
3 -1 5 -8 4 -35 -1 -59 4 -54 12 3 5 -4 11 -15 14 -14 4 -18 10 -13 19 6 10 3
9 -10 -1 -15 -12 -17 -12 -14 0 2 10 -5 13 -24 12 -20 -1 -26 2 -21 12 6 17
-21 30 -70 34 -5 1 -5 6 -2 11 4 6 -8 10 -30 10 -22 0 -34 4 -30 10 3 6 1 10
-4 10 -6 0 -11 -6 -11 -12 0 -9 -3 -8 -10 2 -6 9 -5 17 3 22 7 4 -9 8 -35 9
-61 2 -65 2 -74 11 -3 4 4 5 16 3 12 -2 20 -1 16 3 -8 7 -17 8 -143 13 -47 2
-69 7 -63 13 6 6 10 13 10 17 0 4 -92 7 -205 7 -124 0 -203 -3 -199 -9z m64
-11 c0 -4 -4 -8 -9 -8 -6 0 -12 4 -15 8 -3 5 1 9 9 9 8 0 15 -4 15 -9z m920
-238 c0 -5 -4 -10 -10 -10 -5 0 -10 5 -10 10 0 6 5 10 10 10 6 0 10 -4 10 -10z
m-1927 -165 c-3 -9 -8 -14 -10 -11 -3 3 -2 9 2 15 9 16 15 13 8 -4z m-109
-993 c3 -5 -1 -9 -9 -9 -8 0 -12 4 -9 9 3 4 7 8 9 8 2 0 6 -4 9 -8z m2636 -47
c-7 -9 -15 -13 -19 -10 -3 3 1 10 9 15 21 14 24 12 10 -5z m-2220 -149 c0 -2
-7 -7 -16 -10 -8 -3 -12 -2 -9 4 6 10 25 14 25 6z m30 -400 c0 -2 -8 -10 -17
-17 -16 -13 -17 -12 -4 4 13 16 21 21 21 13z m-773 -71 c0 -8 -4 -12 -9 -9 -5
3 -6 10 -3 15 9 13 12 11 12 -6z m-257 -5 c0 -5 -2 -10 -4 -10 -3 0 -8 5 -11
10 -3 6 -1 10 4 10 6 0 11 -4 11 -10z m0 -24 c0 -3 -4 -8 -10 -11 -5 -3 -10
-1 -10 4 0 6 5 11 10 11 6 0 10 -2 10 -4z m0 -60 c0 -3 -4 -8 -10 -11 -5 -3
-10 -1 -10 4 0 6 5 11 10 11 6 0 10 -2 10 -4z m0 -35 c-7 -14 -7 -22 0 -26 6
-4 7 -12 3 -18 -5 -7 -8 -36 -7 -65 1 -29 -1 -54 -5 -56 -9 -6 -7 107 2 122 5
7 4 12 -3 12 -13 0 -9 32 5 42 16 12 17 10 5 -11z m0 -185 c0 -3 -4 -8 -10
-11 -5 -3 -10 -1 -10 4 0 6 5 11 10 11 6 0 10 -2 10 -4z m10 -21 c0 -2 -10 -9
-22 -15 -22 -11 -22 -10 -4 4 21 17 26 19 26 11z m1350 -59 c0 -3 -4 -8 -10
-11 -5 -3 -10 -1 -10 4 0 6 5 11 10 11 6 0 10 -2 10 -4z m-783 -51 c0 -8 -4
-12 -9 -9 -5 3 -6 10 -3 15 9 13 12 11 12 -6z m783 -29 c0 -3 -4 -8 -10 -11
-5 -3 -10 -1 -10 4 0 6 5 11 10 11 6 0 10 -2 10 -4z m-1026 -184 c3 -5 -1 -9
-9 -9 -8 0 -12 4 -9 9 3 4 7 8 9 8 2 0 6 -4 9 -8z m-300 -48 c3 -8 2 -12 -4
-9 -6 3 -10 10 -10 16 0 14 7 11 14 -7z m623 -99 c0 -8 -4 -12 -9 -9 -5 3 -6
10 -3 15 9 13 12 11 12 -6z m322 -28 c8 -10 7 -14 -2 -14 -8 0 -14 6 -14 14 0
7 1 13 2 13 2 0 8 -6 14 -13z m-419 -1 c0 -3 -4 -8 -10 -11 -5 -3 -10 -1 -10
4 0 6 5 11 10 11 6 0 10 -2 10 -4z m235 -6 c3 -5 1 -10 -4 -10 -6 0 -11 5 -11
10 0 6 2 10 4 10 3 0 8 -4 11 -10z m45 4 c0 -8 -19 -13 -24 -6 -3 5 1 9 9 9 8
0 15 -2 15 -3z m60 -9 c0 -2 -9 -3 -19 -2 -11 0 -18 5 -15 9 4 6 34 0 34 -7z
m46 3 c3 -4 -1 -5 -10 -4 -8 1 -18 5 -22 8 -3 4 1 5 10 4 8 -1 18 -5 22 -8z
m225 -5 c13 -16 12 -17 -3 -4 -10 7 -18 15 -18 17 0 8 8 3 21 -13z m120 0 c13
-16 12 -17 -3 -4 -10 7 -18 15 -18 17 0 8 8 3 21 -13z m2024 7 c3 -5 1 -10 -4
-10 -6 0 -11 5 -11 10 0 6 2 10 4 10 3 0 8 -4 11 -10z m-3115 -626 c0 -8 -5
-12 -10 -9 -6 4 -8 11 -5 16 9 14 15 11 15 -7z m2031 -317 c-10 -9 -11 -8 -5
6 3 10 9 15 12 12 3 -3 0 -11 -7 -18z m89 7 c0 -8 -19 -13 -24 -6 -3 5 1 9 9
9 8 0 15 -2 15 -3z m-1080 -18 c0 -3 -4 -8 -10 -11 -5 -3 -10 -1 -10 4 0 6 5
11 10 11 6 0 10 -2 10 -4z m277 -11 c0 -8 -4 -12 -9 -9 -5 3 -6 10 -3 15 9 13
12 11 12 -6z m58 6 c3 -5 2 -12 -3 -15 -5 -3 -9 1 -9 9 0 17 3 19 12 6z m49 1
c2 -4 -4 -8 -14 -8 -10 0 -16 4 -14 8 3 4 9 8 14 8 5 0 11 -4 14 -8z m-924
-22 c0 -5 -5 -10 -11 -10 -5 0 -7 5 -4 10 3 6 8 10 11 10 2 0 4 -4 4 -10z
m2320 -350 c0 -5 -2 -10 -4 -10 -3 0 -8 5 -11 10 -3 6 -1 10 4 10 6 0 11 -4
11 -10z m-525 -499 c3 -5 2 -12 -3 -15 -5 -3 -9 1 -9 9 0 17 3 19 12 6z m90
-331 c3 -5 2 -10 -4 -10 -5 0 -13 5 -16 10 -3 6 -2 10 4 10 5 0 13 -4 16 -10z
m235 -50 c0 -5 -2 -10 -4 -10 -3 0 -8 5 -11 10 -3 6 -1 10 4 10 6 0 11 -4 11
-10z m40 0 c0 -5 -7 -7 -15 -4 -8 4 -15 8 -15 10 0 2 7 4 15 4 8 0 15 -4 15
-10z m248 -45 c-3 -3 -9 2 -12 12 -6 14 -5 15 5 6 7 -7 10 -15 7 -18z m-1873
-185 c3 -5 1 -10 -4 -10 -6 0 -11 5 -11 10 0 6 2 10 4 10 3 0 8 -4 11 -10z
m-208 -142 c-3 -8 -6 -5 -6 6 -1 11 2 17 5 13 3 -3 4 -12 1 -19z m2891 -413
c-3 -3 -9 2 -12 12 -6 14 -5 15 5 6 7 -7 10 -15 7 -18z m-33 -215 c-3 -5 -12
-10 -18 -10 -7 0 -6 4 3 10 19 12 23 12 15 0z m139 -58 c3 -5 -1 -9 -9 -9 -8
0 -12 4 -9 9 3 4 7 8 9 8 2 0 6 -4 9 -8z m-429 -492 c3 -5 1 -10 -4 -10 -6 0
-11 5 -11 10 0 6 2 10 4 10 3 0 8 -4 11 -10z m-3272 -185 c-3 -9 -8 -14 -10
-11 -3 3 -2 9 2 15 9 16 15 13 8 -4z"/>
<path d="M5122 7087 c-9 -10 -6 -13 13 -13 19 0 22 3 13 13 -6 7 -12 13 -13
13 -1 0 -7 -6 -13 -13z"/>
<path d="M4376 7013 c-6 -14 -5 -15 5 -6 7 7 10 15 7 18 -3 3 -9 -2 -12 -12z"/>
<path d="M3210 5920 c0 -5 5 -10 11 -10 5 0 7 5 4 10 -3 6 -8 10 -11 10 -2 0
-4 -4 -4 -10z"/>
<path d="M6285 5680 c-3 -5 -2 -10 4 -10 5 0 13 5 16 10 3 6 2 10 -4 10 -5 0
-13 -4 -16 -10z"/>
<path d="M3075 5380 c-3 -5 -1 -10 4 -10 6 0 11 5 11 10 0 6 -2 10 -4 10 -3 0
-8 -4 -11 -10z"/>
<path d="M6390 4560 c0 -5 5 -10 11 -10 5 0 7 5 4 10 -3 6 -8 10 -11 10 -2 0
-4 -4 -4 -10z"/>
<path d="M3040 4540 c-9 -6 -10 -10 -3 -10 6 0 15 5 18 10 8 12 4 12 -15 0z"/>
<path d="M6387 4499 c7 -7 15 -10 18 -7 3 3 -2 9 -12 12 -14 6 -15 5 -6 -5z"/>
<path d="M6394 4442 c3 -5 0 -13 -6 -15 -9 -4 -10 -6 -1 -6 17 -1 25 16 12 25
-7 4 -9 3 -5 -4z"/>
<path d="M6389 4283 c-6 -35 -2 -57 11 -61 13 -4 13 -3 2 10 -10 13 -10 17 0
21 10 4 10 6 -1 6 -11 1 -11 4 -1 16 9 10 9 15 1 15 -6 0 -12 -3 -12 -7z"/>
<path d="M3306 3342 c-3 -5 1 -9 9 -9 8 0 12 4 9 9 -3 4 -7 8 -9 8 -2 0 -6 -4
-9 -8z"/>
<path d="M4175 2240 c3 -5 11 -10 16 -10 6 0 7 5 4 10 -3 6 -11 10 -16 10 -6
0 -7 -4 -4 -10z"/>
<path d="M5621 2234 c0 -11 3 -14 6 -6 3 7 2 16 -1 19 -3 4 -6 -2 -5 -13z"/>
<path d="M4910 2140 c0 -5 5 -10 10 -10 6 0 10 5 10 10 0 6 -4 10 -10 10 -5 0
-10 -4 -10 -10z"/>
<path d="M4906 2103 c-6 -14 -5 -15 5 -6 7 7 10 15 7 18 -3 3 -9 -2 -12 -12z"/>
<path d="M4913 2049 c-2 -23 3 -25 10 -4 4 8 3 16 -1 19 -4 3 -9 -4 -9 -15z"/>
<path d="M4910 1960 c0 -5 5 -10 11 -10 5 0 7 5 4 10 -3 6 -8 10 -11 10 -2 0
-4 -4 -4 -10z"/>
<path d="M4508 1853 c7 -3 16 -2 19 1 4 3 -2 6 -13 5 -11 0 -14 -3 -6 -6z"/>
<path d="M6783 1685 c0 -8 4 -15 9 -15 4 0 8 4 8 9 0 6 -4 12 -8 15 -5 3 -9
-1 -9 -9z"/>
<path d="M7180 856 c0 -2 7 -6 15 -10 8 -3 15 -1 15 4 0 6 -7 10 -15 10 -8 0
-15 -2 -15 -4z"/>
<path d="M3815 780 c3 -5 8 -10 11 -10 2 0 4 5 4 10 0 6 -5 10 -11 10 -5 0 -7
-4 -4 -10z"/>
<path d="M6587 313 c-10 -9 -9 -23 1 -23 5 0 9 7 9 15 0 17 -1 18 -10 8z"/>
<path d="M4240 234 c0 -8 5 -12 10 -9 6 4 8 11 5 16 -9 14 -15 11 -15 -7z"/>
<path d="M4310 139 c0 -5 5 -7 10 -4 6 3 10 8 10 11 0 2 -4 4 -10 4 -5 0 -10
-5 -10 -11z"/>
<path d="M7650 101 c0 -6 4 -13 10 -16 6 -3 7 1 4 9 -7 18 -14 21 -14 7z"/>
<path d="M7659 67 c-1 -4 -2 -10 -3 -14 -1 -5 -4 -13 -8 -18 -4 -6 1 -11 11
-11 10 0 17 7 16 18 -1 18 -14 37 -16 25z"/>
</g>
</svg>
