<?xml version="1.0" standalone="no"?>
<!DOCTYPE svg PUBLIC "-//W3C//DTD SVG 20010904//EN"
 "http://www.w3.org/TR/2001/REC-SVG-20010904/DTD/svg10.dtd">
<svg version="1.0" xmlns="http://www.w3.org/2000/svg"
 width="300.000000pt" height="300.000000pt" viewBox="0 0 300.000000 300.000000"
 preserveAspectRatio="xMidYMid meet">
<metadata>
Created by potrace 1.11, written by Peter Selinger 2001-2013
</metadata>
<g transform="translate(0.000000,300.000000) scale(0.100000,-0.100000)"
fill="#000000" stroke="none">
<path d="M1245 2210 c-59 -7 -93 -24 -104 -51 -4 -12 -6 -54 -6 -94 1 -43 -2
-72 -8 -68 -27 17 -167 -198 -171 -263 0 -13 -4 -24 -8 -24 -7 0 -20 -84 -23
-146 -1 -22 -4 -45 -6 -50 -6 -10 -4 -91 5 -199 13 -157 88 -378 167 -490 90
-129 180 -179 320 -177 l56 1 2 -62 c1 -34 4 -89 7 -122 2 -33 5 -97 6 -143 3
-70 1 -82 -13 -82 -9 0 -21 -6 -26 -13 -7 -10 -10 -134 -4 -210 1 -16 14 -17
174 -15 l172 3 -2 25 c-1 14 -5 50 -8 80 -4 30 -8 69 -10 85 -2 17 -4 33 -4
38 -1 4 -8 7 -16 7 -19 0 -17 -8 -20 132 -1 64 -5 124 -8 132 -4 9 -1 16 6 16
8 0 8 3 2 8 -6 4 -12 50 -13 104 l-3 96 58 59 c51 51 74 82 104 143 13 25 22
55 21 63 -1 4 3 7 9 7 5 0 8 3 5 8 -2 4 0 30 6 57 10 54 16 195 8 195 -3 0 -6
44 -7 98 -7 302 -36 451 -113 583 -72 123 -191 189 -338 189 l-55 0 6 40 c3
26 1 40 -6 41 -41 4 -119 4 -162 -1z"/>
</g>
</svg>
